<svg id="Uber_logo_2018" xmlns="http://www.w3.org/2000/svg" width="122.144" height="42.402" viewBox="0 0 122.144 42.402">
  <path id="Path_29" data-name="Path 29" d="M7.027,30.283A10.444,10.444,0,0,0,9.171,33.8a9.225,9.225,0,0,0,3.246,2.233,10.589,10.589,0,0,0,4.08.774,10.1,10.1,0,0,0,4.02-.8,9.889,9.889,0,0,0,3.275-2.263,10.26,10.26,0,0,0,2.174-3.484,12.587,12.587,0,0,0,.774-4.526V0h6.253V41.688H26.8V37.817a14.357,14.357,0,0,1-4.913,3.395,15.57,15.57,0,0,1-6.1,1.191,16.527,16.527,0,0,1-6.224-1.161,14.572,14.572,0,0,1-5-3.305,15.591,15.591,0,0,1-3.335-5.151A17.661,17.661,0,0,1,0,26.085V0H6.253V25.727A12.83,12.83,0,0,0,7.027,30.283Z" fill="#fff"/>
  <path id="Path_30" data-name="Path 30" d="M292.538,0V15.186a15.929,15.929,0,0,1,4.824-3.305,14.462,14.462,0,0,1,5.955-1.221,15.7,15.7,0,0,1,6.253,1.251,15.754,15.754,0,0,1,8.457,8.457,15.558,15.558,0,0,1,1.251,6.194,15.344,15.344,0,0,1-1.251,6.164,15.832,15.832,0,0,1-8.457,8.427,15.705,15.705,0,0,1-6.253,1.251,14.668,14.668,0,0,1-5.985-1.221,15.821,15.821,0,0,1-4.854-3.305v3.811h-5.955V0Zm.685,30.67a10.362,10.362,0,0,0,2.233,3.335,10.777,10.777,0,0,0,3.335,2.263,10.139,10.139,0,0,0,4.109.834,9.992,9.992,0,0,0,4.05-.834,10.418,10.418,0,0,0,3.305-2.263,11.044,11.044,0,0,0,2.233-3.335,10.138,10.138,0,0,0,.834-4.109,10.35,10.35,0,0,0-.834-4.139,10.945,10.945,0,0,0-2.233-3.365,10.026,10.026,0,0,0-3.305-2.233,10.47,10.47,0,0,0-11.434,2.233,10.683,10.683,0,0,0-2.263,3.365,10.35,10.35,0,0,0-.834,4.139A10.46,10.46,0,0,0,293.223,30.67Z" transform="translate(-248.766)" fill="#fff"/>
  <path id="Path_31" data-name="Path 31" d="M553,91.057a16.2,16.2,0,0,1,3.275-5.032,15.757,15.757,0,0,1,17.211-3.484,14.407,14.407,0,0,1,4.824,3.305,15.107,15.107,0,0,1,3.156,5,17.076,17.076,0,0,1,1.132,6.283V99.1H557.879a10.185,10.185,0,0,0,1.191,3.424,10.325,10.325,0,0,0,2.233,2.739,10.205,10.205,0,0,0,3.037,1.816,9.918,9.918,0,0,0,3.6.655,10.419,10.419,0,0,0,8.754-4.467l4.347,3.216a15.865,15.865,0,0,1-13.1,6.491,16.772,16.772,0,0,1-6.343-1.191,15.444,15.444,0,0,1-5.122-3.335,15.821,15.821,0,0,1-3.424-5.032A16.25,16.25,0,0,1,553,91.057Zm8.367-2.352A10.15,10.15,0,0,0,558,94.333H576.52a9.851,9.851,0,0,0-3.305-5.628,9.362,9.362,0,0,0-11.851,0Z" transform="translate(-479.091 -70.63)" fill="#fff"/>
  <path id="Path_32" data-name="Path 32" d="M818.679,91.742a8.064,8.064,0,0,0-1.906,5.658V114.67h-6.015V84.3h5.955v3.752a8.465,8.465,0,0,1,2.948-2.918,8.342,8.342,0,0,1,4.318-1.072h2.084v5.6h-2.5A6.321,6.321,0,0,0,818.679,91.742Z" transform="translate(-703.92 -72.982)" fill="#fff"/>
</svg>
